# xmcd
#
# Track frame offsets: 
#        150
#        14904
#        33096
#        53442
#        63243
#        74238
#        86190
#        98004
#        113574
#        125520
#        133968
#        145172
#        164294
#        179216
#        192281
#        202703
#        220478
#        232325
#        250274
#        271148
#        287477
#        300449
#        314741
#
# Disc length: 4377 seconds
#
# Revision: 1
# Processed by: cddbd v1.5.2PL0 Copyright (c) Steve Scherf et al.
# Submitted via: ExactAudioCopy v0.99pb4
#
DISCID=61111717
DTITLE=Joe Dassin - Eternel [CD1)
DYEAR=2005
DGENRE=Chanson
TTITLE0=Depuis l'annee derniere
TTITLE1=Salut les amoureux
TTITLE2=L'ete indien
TTITLE3=La fleur aux dents
TTITLE4=L'Amerique
TTITLE5=Les Champs-Elysees
TTITLE6=Siffler sur la colline
TTITLE7=Le petit pain au chocolat
TTITLE8=Les Dalton
TTITLE9=La complainte de l'heure de pointe ( A Paris en velo )
TTITLE10=Le chemin de papa
TTITLE11=Marie-Jeanne
TTITLE12=Mon village au bout du monde
TTITLE13=Guantanamera
TTITLE14=Le moustique
TTITLE15=Il etait une fois nous deux
TTITLE16=Ma bonne etoile
TTITLE17=Le cafe des trois colombes
TTITLE18=Les plus belles annees de ma vie
TTITLE19=Comme la Lune
TTITLE20=La bande à Bonnot
TTITLE21=L'equipe à Jojo
TTITLE22=Trois caravelles
EXTD=
EXTT0=
EXTT1=
EXTT2=
EXTT3=
EXTT4=
EXTT5=
EXTT6=
EXTT7=
EXTT8=
EXTT9=
EXTT10=
EXTT11=
EXTT12=
EXTT13=
EXTT14=
EXTT15=
EXTT16=
EXTT17=
EXTT18=
EXTT19=
EXTT20=
EXTT21=
EXTT22=
PLAYORDER=
